<?xml version="1.0" encoding="UTF-8"?>
<svg xmlns="http://www.w3.org/2000/svg" xmlns:xlink="http://www.w3.org/1999/xlink" viewBox="0 0 48 48" width="48px" height="48px">
<g id="surface1094962">
<path style=" stroke:none;fill-rule:nonzero;fill:rgb(94.509804%,76.862746%,5.882353%);fill-opacity:1;" d="M 40 12 L 22 12 L 18 8 L 8 8 C 5.800781 8 4 9.800781 4 12 L 4 20 L 44 20 L 44 16 C 44 13.800781 42.199219 12 40 12 Z M 40 12 "/>
<path style=" stroke:none;fill-rule:nonzero;fill:rgb(100%,79.215688%,15.686275%);fill-opacity:1;" d="M 40 12 L 8 12 C 5.800781 12 4 13.800781 4 16 L 4 36 C 4 38.199219 5.800781 40 8 40 L 40 40 C 42.199219 40 44 38.199219 44 36 L 44 16 C 44 13.800781 42.199219 12 40 12 Z M 40 12 "/>
<path style=" stroke:none;fill-rule:nonzero;fill:rgb(100%,79.215688%,15.686275%);fill-opacity:1;" d="M 15 15 L 33 15 L 33 37 L 15 37 Z M 15 15 "/>
<path style=" stroke:none;fill-rule:nonzero;fill:rgb(100%,59.607846%,0%);fill-opacity:1;" d="M 24 33 C 21.601562 33 21.5 29.5 21.5 29.5 L 21.5 26.5 L 26.5 26.5 L 26.5 29.5 C 26.5 29.5 26.398438 33 24 33 Z M 24 33 "/>
<path style=" stroke:none;fill-rule:nonzero;fill:rgb(100%,65.490198%,14.901961%);fill-opacity:1;" d="M 28.5 22.5 C 27.949219 22.5 27.5 22.949219 27.5 23.5 C 27.5 24.050781 27.949219 24.5 28.5 24.5 C 29.050781 24.5 29.5 24.050781 29.5 23.5 C 29.5 22.949219 29.050781 22.5 28.5 22.5 Z M 19.5 22.5 C 18.949219 22.5 18.5 22.949219 18.5 23.5 C 18.5 24.050781 18.949219 24.5 19.5 24.5 C 20.050781 24.5 20.5 24.050781 20.5 23.5 C 20.5 22.949219 20.050781 22.5 19.5 22.5 Z M 19.5 22.5 "/>
<path style=" stroke:none;fill-rule:nonzero;fill:rgb(100%,71.764708%,30.19608%);fill-opacity:1;" d="M 28.5 20.5 C 28.5 16.699219 19.5 18 19.5 20.5 C 19.5 21 19.5 23.5 19.5 24 C 19.5 26.5 21.5 28.5 24 28.5 C 26.5 28.5 28.5 26.5 28.5 24 C 28.5 23.5 28.5 21 28.5 20.5 Z M 28.5 20.5 "/>
<path style=" stroke:none;fill-rule:nonzero;fill:rgb(25.882354%,25.882354%,25.882354%);fill-opacity:1;" d="M 24 16 C 21 16 19 18.5 19 21.5 C 19 21.898438 19 22.601562 19 22.601562 L 20 23.5 L 20 21 L 26 19 L 28 21 L 28 23.5 L 29 22.601562 C 29 22.601562 29 21.898438 29 21.5 C 29 19.5 28.5 17.5 26 17 L 25.5 16 Z M 24 16 "/>
<path style=" stroke:none;fill-rule:nonzero;fill:rgb(47.058824%,27.843139%,9.803922%);fill-opacity:1;" d="M 26 23 C 25.722656 23 25.5 23.222656 25.5 23.5 C 25.5 23.777344 25.722656 24 26 24 C 26.277344 24 26.5 23.777344 26.5 23.5 C 26.5 23.222656 26.277344 23 26 23 Z M 22 23 C 21.722656 23 21.5 23.222656 21.5 23.5 C 21.5 23.777344 21.722656 24 22 24 C 22.277344 24 22.5 23.777344 22.5 23.5 C 22.5 23.222656 22.277344 23 22 23 Z M 22 23 "/>
<path style=" stroke:none;fill-rule:nonzero;fill:rgb(0%,58.823532%,53.333336%);fill-opacity:1;" d="M 26.5 29.5 C 26.5 29.5 25.601562 30.5 24 30.5 C 22.398438 30.5 21.5 29.5 21.5 29.5 C 21.5 29.5 16 30.5 16 36 L 32 36 C 32 30.5 26.5 29.5 26.5 29.5 Z M 26.5 29.5 "/>
<path style=" stroke:none;fill-rule:nonzero;fill:rgb(26.274511%,62.7451%,27.843139%);fill-opacity:1;" d="M 48 38 C 48 43.5 43.5 48 38 48 C 32.5 48 28 43.5 28 38 C 28 32.5 32.5 28 38 28 C 43.5 28 48 32.5 48 38 "/>
<path style=" stroke:none;fill-rule:nonzero;fill:rgb(100%,100%,100%);fill-opacity:1;" d="M 44 36 L 40 36 L 40 32 L 36 32 L 36 36 L 32 36 L 32 40 L 36 40 L 36 44 L 40 44 L 40 40 L 44 40 Z M 44 36 "/>
</g>
</svg>
